<svg xmlns="http://www.w3.org/2000/svg" width="512" height="512" viewBox="0 0 1500 1500">
  <rect width="1500" height="1500" fill="none"/>
  <g transform="translate(0, 95)">
    <path fill="#ffffff" d="M 886.992188 0 C 886.992188 0 838.242188 211.941406 960.117188 401.335938 C 1081.992188 590.726562 1498.3125 963.90625 909.476562 1310.886719 C 909.476562 1310.886719 1034.152344 1133.679688 971.390625 1012.71875 C 908.566406 891.757812 773.527344 801.753906 796.011719 612.363281 C 796.011719 612.363281 617.894531 686.464844 696.625 1022.105469 C 696.625 1022.105469 596.257812 985.542969 554.089844 886.609375 C 554.089844 886.609375 491.71875 1080.695312 606.097656 1307.625 C 606.097656 1307.625 1.292969 1019.238281 488.917969 459.078125 C 488.917969 459.078125 499.214844 641.953125 571.425781 692.589844 C 571.425781 692.589844 452.289062 197.539062 886.929688 0.128906 Z M 886.992188 0" fill-opacity="1" fill-rule="evenodd"/>
  </g>
</svg>
